<?xml version="1.0" standalone="no"?>
<!DOCTYPE svg PUBLIC "-//W3C//DTD SVG 20010904//EN"
 "http://www.w3.org/TR/2001/REC-SVG-20010904/DTD/svg10.dtd">
<svg version="1.0" xmlns="http://www.w3.org/2000/svg"
 width="98.000000pt" height="98.000000pt" viewBox="0 0 98.000000 98.000000"
 preserveAspectRatio="xMidYMid meet">
<metadata>
Created by potrace 1.11, written by Peter Selinger 2001-2013
</metadata>
<g transform="translate(0.000000,98.000000) scale(0.100000,-0.100000)"
fill="#000000" stroke="none">
<path d="M343 754 c-2 -6 -3 -40 -1 -75 l3 -64 32 -2 c31 -3 32 -1 35 40 l3
42 123 0 c68 0 125 -2 127 -5 1 -3 -9 -29 -22 -57 -22 -49 -27 -53 -58 -53
-25 0 -40 -8 -58 -30 -25 -29 -28 -30 -116 -30 l-90 0 -3 34 -3 35 -82 -47
c-45 -26 -81 -51 -80 -56 2 -5 40 -30 85 -57 l82 -49 0 35 0 35 95 0 c90 0 96
-1 106 -23 9 -20 4 -38 -35 -116 -26 -50 -44 -96 -41 -100 2 -5 19 -8 37 -7
31 1 36 7 78 90 33 64 53 92 75 104 17 8 36 23 43 34 11 15 27 18 93 18 l79 0
0 35 0 35 -79 0 c-44 0 -82 4 -86 10 -3 5 12 45 35 89 22 46 40 95 40 114 l0
33 -206 -1 c-143 0 -208 -3 -211 -11z"/>
</g>
</svg>
